<svg xmlns="http://www.w3.org/2000/svg" viewBox="0 0 390.34 222.44"><defs><style>.cls-1{fill:#e67e54;}.cls-2{fill:#fbf8f9;}.cls-3{fill:#fbc75d;}.cls-4{fill:#bed8a6;}.cls-5{fill:#003455;}.cls-6,.cls-7{fill:#1d1d1b;}.cls-6{stroke:#1d1d1b;stroke-miterlimit:10;}</style></defs><title>happyAvatarSign</title><g id="Lager_2" data-name="Lager 2"><g id="Lager_2-2" data-name="Lager 2"><path class="cls-1" d="M168.17,190.12c13.39-.45,26.68-1.62,40-2.9s26.68-2.55,40.06-3.24c4.29-.22,8.66-.47,13.06-.61a173.62,173.62,0,0,0,5.6-22.5s1.67-9.35,2.17-16.85c1.18-17.91-23.3-80-74.64-79.53-52.84.49-73.08,66.69-73.2,84.53a106.18,106.18,0,0,0,.82,12.69,96,96,0,0,0,9.42,30.43C140.31,191.73,152.92,190.64,168.17,190.12Z"/><path class="cls-2" d="M171.5,179.09c8.53,1.13,17.07,1.8,25.65,2.41s17.17,1.22,25.72,2.2c2.74.32,5.54.63,8.34,1a110.74,110.74,0,0,0,5.93-13.66s2.06-5.74,3.17-10.44c2.65-11.22-6.26-53.16-38.83-58.31C168,97,148.11,136.78,146.14,148.06a67.22,67.22,0,0,0-.83,8.13A61.89,61.89,0,0,0,148,176.46C153.68,177.14,161.79,177.79,171.5,179.09Z"/><rect class="cls-3" x="294.82" y="75.75" width="6.63" height="19.9"/><rect class="cls-3" x="294.82" y="75.84" width="6.63" height="19.9" transform="translate(383.93 -212.34) rotate(90)"/><rect class="cls-4" x="95.17" y="104.26" width="6.63" height="19.9" transform="translate(212.69 15.72) rotate(90)"/><rect class="cls-3" x="34.29" y="184.14" width="6.63" height="19.9"/><rect class="cls-3" x="34.29" y="184.24" width="6.63" height="19.9" transform="translate(231.8 156.58) rotate(90)"/><rect class="cls-3" x="88.53" y="28.92" width="6.63" height="19.9"/><rect class="cls-3" x="88.53" y="29.01" width="6.63" height="19.9" transform="translate(130.82 -52.89) rotate(90)"/><rect class="cls-3" x="349.82" y="200.92" width="6.63" height="19.9"/><rect class="cls-3" x="349.82" y="201.02" width="6.63" height="19.9" transform="translate(564.11 -142.17) rotate(90)"/><rect class="cls-4" x="215.94" y="35.65" width="6.63" height="19.9" transform="translate(264.86 -173.66) rotate(90)"/><rect class="cls-4" x="314.73" y="166.89" width="6.63" height="19.9" transform="translate(494.88 -141.2) rotate(90)"/><rect class="cls-4" x="44.25" y="144.94" width="6.63" height="19.9" transform="translate(202.45 107.33) rotate(90)"/><rect class="cls-3" x="265.79" width="6.63" height="19.9"/><rect class="cls-3" x="265.79" y="0.1" width="6.63" height="19.9" transform="translate(279.16 -259.06) rotate(90)"/><rect class="cls-4" x="335.14" y="104.26" width="6.63" height="19.9" transform="translate(452.67 -224.25) rotate(90)"/><rect class="cls-4" x="141.96" y="3.32" width="6.63" height="19.9" transform="translate(158.55 -132.01) rotate(90)"/><rect class="cls-5" y="165.74" width="390.34" height="56.7"/><ellipse class="cls-6" cx="206.38" cy="136.72" rx="2.92" ry="3.82"/><ellipse class="cls-6" cx="188.2" cy="136.72" rx="2.92" ry="3.82"/><ellipse class="cls-2" cx="163.19" cy="176.84" rx="10.02" ry="11.87"/><ellipse class="cls-2" cx="223.41" cy="170.84" rx="10.02" ry="11.87"/><rect class="cls-2" x="153.17" y="158.21" width="20.03" height="20.03"/><rect class="cls-2" x="213.4" y="151.12" width="20.03" height="20.03"/><path class="cls-7" d="M187.2,146.81a51.16,51.16,0,0,1,10.22-1.35c5.27-.16,7.9-.24,9.15,1.24,3.2,3.79-2.07,17.17-8.45,17.07-3.79-.06-7.77-4.86-9.34-11.44"/></g></g></svg>