<svg xmlns="http://www.w3.org/2000/svg" viewBox="0 0 290.39 220.93"><defs><style>.cls-1{fill:#e67e54;}.cls-2{fill:#fbf8f9;}.cls-3{fill:#1d1d1b;}.cls-4{fill:#fbc75d;}.cls-5{fill:#bed8a6;}</style></defs><title>HappyAvatarBackground</title><g id="Lager_2" data-name="Lager 2"><g id="Lager_4" data-name="Lager 4"><path class="cls-1" d="M222.1,154A66.8,66.8,0,0,1,214,182.69c-12.47,22.81-38.92,39-66.31,38.21-40.94-1.19-69-39.88-73.76-72.55-.82-5.61-3.2-23.66,6.4-42.72,12.46-24.76,40-41,66.84-40.2C192.78,66.76,223.77,116.66,222.1,154Z"/><path class="cls-2" d="M202.17,148.46c.61,4.83,2.15,18.75-6.2,31.92-10.78,17-31.67,22.7-47.28,21.56-28.64-2.09-51-28-53.48-53.48-.38-3.91-1.51-17.67,7-30.94C112.68,101,132.41,94.05,148.69,95,177.83,96.65,199.08,123.8,202.17,148.46Z"/><ellipse class="cls-3" cx="159.38" cy="121.32" rx="3.58" ry="5.23"/><ellipse class="cls-3" cx="139.1" cy="121.32" rx="3.58" ry="5.23"/><path class="cls-3" d="M139.88,132.23c2.39-.74,18.77-5.64,21.32-.67a4.4,4.4,0,0,1,.25,2.39c-.29,4.71-2.89,13.44-8.58,14.44-5.08.9-11.93-4.48-13-13.51"/></g><g id="Lager_12" data-name="Lager 12"><rect class="cls-4" x="6.63" y="14.51" width="6.63" height="19.9"/><rect class="cls-4" x="6.63" y="14.6" width="6.63" height="19.9" transform="translate(34.51 14.6) rotate(90)"/><rect class="cls-4" x="41.73" y="191.56" width="6.63" height="19.9"/><rect class="cls-4" x="41.73" y="191.66" width="6.63" height="19.9" transform="translate(246.66 156.56) rotate(90)"/><rect class="cls-5" x="6.63" y="157.53" width="6.63" height="19.9" transform="translate(177.43 157.53) rotate(90)"/><rect class="cls-5" x="27.05" y="81.63" width="6.63" height="19.9" transform="translate(121.95 61.22) rotate(90)"/><rect class="cls-5" x="227.92" y="198.29" width="6.63" height="19.9" transform="translate(439.48 -22.99) rotate(90)"/><rect class="cls-4" x="277.12" y="133.21" width="6.63" height="19.9"/><rect class="cls-4" x="277.12" y="133.31" width="6.63" height="19.9" transform="translate(423.7 -137.17) rotate(90)"/><rect class="cls-4" x="213.09" y="45.21" width="6.63" height="19.9"/><rect class="cls-4" x="213.09" y="45.31" width="6.63" height="19.9" transform="translate(271.67 -161.15) rotate(90)"/><rect class="cls-5" x="243.94" y="106.15" width="6.63" height="19.9" transform="translate(363.36 -131.16) rotate(90)"/><rect class="cls-5" x="109.5" y="35.65" width="6.63" height="19.9" transform="translate(158.42 -67.22) rotate(90)"/><rect class="cls-4" x="159.35" width="6.63" height="19.9"/><rect class="cls-4" x="159.35" y="0.1" width="6.63" height="19.9" transform="translate(172.72 -152.62) rotate(90)"/><rect class="cls-5" x="267.16" y="3.41" width="6.63" height="19.9" transform="translate(283.85 -257.11) rotate(90)"/></g></g></svg>