<svg xmlns="http://www.w3.org/2000/svg" viewBox="0 0 149.11 155.53"><defs><style>.cls-1{fill:#e67e54;}.cls-2{fill:#fbf8f9;}.cls-3{fill:#1d1d1b;}</style></defs><title>happyAvatarRight</title><g id="Lager_2" data-name="Lager 2"><g id="Lager_4" data-name="Lager 4"><path class="cls-1" d="M149,88.58a66.68,66.68,0,0,1-8.1,28.71c-12.47,22.81-38.93,39-66.32,38.21-40.93-1.19-69-39.88-73.75-72.56-.82-5.6-3.2-23.65,6.4-42.72C19.73,15.47,47.23-.76,74.11,0,119.73,1.35,150.72,51.26,149,88.58Z"/><path class="cls-2" d="M129.12,83.06c.6,4.83,2.14,18.75-6.2,31.92-10.78,17-31.67,22.7-47.28,21.56-28.65-2.09-51-28-53.48-53.48-.38-3.91-1.51-17.67,7-30.94,10.52-16.5,30.25-23.47,46.53-22.54C104.78,31.25,126,58.4,129.12,83.06Z"/><ellipse class="cls-3" cx="86.33" cy="55.92" rx="3.58" ry="5.23"/><ellipse class="cls-3" cx="66.04" cy="55.92" rx="3.58" ry="5.23"/><path class="cls-3" d="M66.82,66.82c2.4-.73,18.78-5.64,21.33-.66a4.4,4.4,0,0,1,.25,2.39C88.11,73.26,85.51,82,79.82,83c-5.08.9-11.93-4.48-13-13.51"/></g></g></svg>