<svg xmlns="http://www.w3.org/2000/svg" viewBox="0 0 133.98 85.7"><defs><style>.cls-1{fill:#fbc75d;}.cls-2{fill:#e67e54;}.cls-3{fill:#fbf8f9;}.cls-4{fill:#bed8a6;}.cls-5{fill:#1d1d1b;}</style></defs><title>plusMinusAvatar</title><g id="Lager_2" data-name="Lager 2"><g id="Lager_12" data-name="Lager 12"><rect class="cls-1" x="28.57" width="28.57" height="85.7"/><rect class="cls-1" x="28.57" y="0.42" width="28.57" height="85.7" transform="translate(86.12 0.42) rotate(90)"/></g><g id="Lager_6" data-name="Lager 6"><path class="cls-2" d="M81.88,59c5.83-.19,11.62-.7,17.42-1.26s11.61-1.11,17.44-1.41c1.87-.1,3.77-.21,5.69-.27a74.78,74.78,0,0,0,2.43-9.79s.73-4.07,1-7.34c.51-7.79-10.15-34.83-32.5-34.62-23,.22-31.81,29-31.86,36.8a45.49,45.49,0,0,0,.36,5.53,41.52,41.52,0,0,0,4.1,13.24C69.75,59.68,75.24,59.2,81.88,59Z"/><path class="cls-3" d="M83.33,54.17c3.72.49,7.43.79,11.17,1s7.47.53,11.19,1c1.2.14,2.41.27,3.63.44a48.84,48.84,0,0,0,2.59-5.95s.89-2.5,1.38-4.55c1.15-4.88-2.73-23.13-16.91-25.38-14.59-2.31-23.23,15-24.09,19.92a29.19,29.19,0,0,0-.36,3.54A26.72,26.72,0,0,0,73.12,53C75.58,53.32,79.1,53.61,83.33,54.17Z"/><rect class="cls-4" x="76.85" y="19.46" width="28.57" height="85.7" transform="translate(153.44 -28.82) rotate(90)"/><ellipse class="cls-3" cx="79.71" cy="53.19" rx="4.36" ry="5.17"/><ellipse class="cls-3" cx="105.93" cy="50.58" rx="4.36" ry="5.17"/><rect class="cls-3" x="75.35" y="45.08" width="8.72" height="8.72"/><rect class="cls-3" x="101.57" y="41.99" width="8.72" height="8.72"/><ellipse class="cls-5" cx="98.67" cy="31.81" rx="1.93" ry="2.82"/><ellipse class="cls-5" cx="88.14" cy="31.81" rx="1.93" ry="2.82"/><path class="cls-5" d="M88.14,37.69a30.19,30.19,0,0,1,6.64-1c2.79-.11,4.19-.16,4.87.66,1.61,2-.51,8.62-4.5,9.09-2.91.34-6.4-2.42-6.83-6.73"/></g></g></svg>