<svg xmlns="http://www.w3.org/2000/svg" viewBox="0 0 147.55 155.6"><defs><style>.cls-1{fill:#e67e54;}.cls-2{fill:#fbf8f9;}.cls-3{fill:#1d1d1b;}</style></defs><title>sadAvatar</title><g id="Lager_2" data-name="Lager 2"><g id="Lager_4" data-name="Lager 4"><path class="cls-1" d="M147.49,77.74c.88,20-7.67,35-10.33,39.55-1.08,1.82-24.77,40.6-66.32,38.21-35-2-53.95-31.57-57.2-36.62-2.92-4.55-24.7-39.82-6.39-77.06C19,17.92,43.58.68,70.33,0,113.37-1,145.88,41.2,147.49,77.74Z"/><path class="cls-2" d="M126.81,80.33c.55,5.52,1.84,20.58-7.67,34.64-11,16.27-30.85,22.89-47.28,21.56-23.12-1.86-43.5-19.77-50.45-44.85C20.67,86.2,19,68.76,29.67,52c10-15.76,29.85-29.27,51.58-26.35C109.63,29.44,124.67,59,126.81,80.33Z"/><ellipse class="cls-3" cx="85.42" cy="63.45" rx="3.58" ry="5.23"/><ellipse class="cls-3" cx="65.04" cy="63.79" rx="3.58" ry="5.23"/><path class="cls-3" d="M80,48.51c0,2.66,2.54,4.3,4.67,5.31a18,18,0,0,0,7.89,1.67,2.57,2.57,0,0,0,1.92-.76c.37-.55-.32-.74-.76-.74A15.16,15.16,0,0,1,87,52.5c-1.95-.92-4.13-2.36-4.1-4.76,0-.75-2.88-.27-2.9.77Z"/><path class="cls-3" d="M65.72,48.28a5.21,5.21,0,0,1-3.3,4.62,17.82,17.82,0,0,1-3.61.75,39.36,39.36,0,0,1-4.2.31c-.59,0-1.53.44-1.62,1.1s.8.84,1.31.83a36.69,36.69,0,0,0,4.8-.39,20.38,20.38,0,0,0,4.81-1.18A7.68,7.68,0,0,0,68.64,48c.11-1.38-2.82-.91-2.92.28Z"/><path class="cls-3" d="M68.28,84a15.6,15.6,0,0,1,18.47-1.25c.75.47,3.44-.66,2.32-1.35C82,77,72.14,78.17,66,83.59c-.46.4-.31.82.25,1a2.58,2.58,0,0,0,2-.55Z"/></g></g></svg>