<svg xmlns="http://www.w3.org/2000/svg" viewBox="0 0 335.43 222.44"><defs><style>.cls-1{fill:#e67e54;}.cls-2{fill:#fbf8f9;}.cls-3{fill:#fbc75d;}.cls-4{fill:#bed8a6;}.cls-5{fill:#003455;}.cls-6,.cls-7{fill:#1d1d1b;}.cls-7{stroke:#1d1d1b;stroke-miterlimit:10;}</style></defs><title>SadAvatarSignBackground</title><g id="Lager_2" data-name="Lager 2"><g id="Lager_1-2" data-name="Lager 1"><path class="cls-1" d="M140.52,190.12c13.39-.45,26.67-1.62,40-2.9s26.68-2.55,40.06-3.24c4.29-.22,8.67-.47,13.06-.61a170.38,170.38,0,0,0,5.6-22.5s1.68-9.35,2.17-16.85c1.18-17.91-23.3-80-74.64-79.53C113.93,65,93.69,131.18,93.57,149a105,105,0,0,0,.83,12.69,96.06,96.06,0,0,0,9.41,30.43C112.65,191.73,125.26,190.64,140.52,190.12Z"/></g><g id="Lager_4" data-name="Lager 4"><path class="cls-2" d="M143.84,179.09c8.53,1.13,17.07,1.8,25.65,2.41s17.17,1.22,25.72,2.2c2.74.32,5.54.63,8.34,1a110.74,110.74,0,0,0,5.93-13.66s2.06-5.74,3.17-10.44c2.65-11.22-6.26-53.16-38.83-58.31-33.51-5.3-53.37,34.48-55.34,45.76a69.63,69.63,0,0,0-.83,8.13,61.89,61.89,0,0,0,2.73,20.27C126,177.14,134.13,177.79,143.84,179.09Z"/></g><g id="Lager_12" data-name="Lager 12"><rect class="cls-3" x="267.16" y="75.75" width="6.63" height="19.9"/><rect class="cls-3" x="267.16" y="75.84" width="6.63" height="19.9" transform="translate(356.28 -184.68) rotate(90)"/><rect class="cls-4" x="67.51" y="104.26" width="6.63" height="19.9" transform="translate(185.04 43.38) rotate(90)"/><rect class="cls-3" x="6.63" y="184.14" width="6.63" height="19.9"/><rect class="cls-3" x="6.63" y="184.24" width="6.63" height="19.9" transform="translate(204.14 184.24) rotate(90)"/><rect class="cls-3" x="60.87" y="28.92" width="6.63" height="19.9"/><rect class="cls-3" x="60.87" y="29.01" width="6.63" height="19.9" transform="translate(103.16 -25.23) rotate(90)"/><rect class="cls-3" x="322.16" y="200.92" width="6.63" height="19.9"/><rect class="cls-3" x="322.16" y="201.02" width="6.63" height="19.9" transform="translate(536.45 -114.51) rotate(90)"/><rect class="cls-4" x="188.28" y="35.65" width="6.63" height="19.9" transform="translate(237.2 -146) rotate(90)"/><rect class="cls-4" x="287.07" y="166.89" width="6.63" height="19.9" transform="translate(467.22 -113.55) rotate(90)"/><rect class="cls-4" x="16.59" y="144.94" width="6.63" height="19.9" transform="translate(174.8 134.99) rotate(90)"/><rect class="cls-3" x="238.13" width="6.63" height="19.9"/><rect class="cls-3" x="238.13" y="0.1" width="6.63" height="19.9" transform="translate(251.5 -231.4) rotate(90)"/><rect class="cls-4" x="307.48" y="104.26" width="6.63" height="19.9" transform="translate(425.01 -196.59) rotate(90)"/><rect class="cls-4" x="114.3" y="3.32" width="6.63" height="19.9" transform="translate(130.89 -104.35) rotate(90)"/></g><g id="Lager_2-2" data-name="Lager 2"><rect class="cls-5" x="80.75" y="165.74" width="170.39" height="56.7"/></g><g id="Lager_7" data-name="Lager 7"><path class="cls-6" d="M174.36,127.7c0,2.66,2.54,4.3,4.66,5.3a17.92,17.92,0,0,0,7.89,1.67,2.5,2.5,0,0,0,1.92-.76c.38-.55-.32-.74-.75-.73a15.37,15.37,0,0,1-6.73-1.49c-1.94-.92-4.13-2.36-4.09-4.77,0-.75-2.89-.26-2.9.78Z"/><path class="cls-6" d="M160.12,127.46a5.2,5.2,0,0,1-3.31,4.63,18.43,18.43,0,0,1-3.6.75,37.07,37.07,0,0,1-4.21.3c-.58,0-1.53.45-1.61,1.11s.8.84,1.3.83a36.85,36.85,0,0,0,4.81-.4,19.38,19.38,0,0,0,4.8-1.18,7.65,7.65,0,0,0,4.74-6.31c.11-1.38-2.83-.91-2.92.27Z"/><ellipse class="cls-7" cx="178.73" cy="141.72" rx="2.92" ry="3.82"/><ellipse class="cls-7" cx="160.54" cy="141.72" rx="2.92" ry="3.82"/></g><g id="Lager_6" data-name="Lager 6"><ellipse class="cls-2" cx="135.53" cy="176.84" rx="10.02" ry="11.87"/><ellipse class="cls-2" cx="195.75" cy="170.84" rx="10.02" ry="11.87"/><rect class="cls-2" x="125.52" y="158.21" width="20.03" height="20.03"/><rect class="cls-2" x="185.74" y="151.12" width="20.03" height="20.03"/></g></g></svg>