<svg xmlns="http://www.w3.org/2000/svg" viewBox="0 0 147.72 155.55"><defs><style>.cls-1{fill:#e67e54;}.cls-2{fill:#fbf8f9;}.cls-3{fill:#1d1d1b;}</style></defs><title>Resurs 1</title><g id="Lager_2" data-name="Lager 2"><g id="Lager_4" data-name="Lager 4"><path class="cls-1" d="M147.55,87.22c-1.12,14.64-7.51,25.4-10.35,30.06-12,19.71-36.64,39.54-66.31,38.21C31.29,153.72,4.65,115.24.59,83.2A73.55,73.55,0,0,1,7.3,41.81C18.75,18.48,43.6.6,70.37,0,116.16-1,150.47,49,147.55,87.22Z"/><path class="cls-2" d="M126.85,80.33c.79,5.92,1.7,20.77-7.67,34.64-10.68,15.81-30,23.41-47.28,21.56-28.44-3.06-45.57-31.2-48.13-53.33-.59-5.1-1.93-18.35,5.94-31.23,9.51-15.55,27.48-22.42,42.19-22.4C100,29.62,123.43,54.75,126.85,80.33Z"/><ellipse class="cls-3" cx="82.59" cy="55.91" rx="3.58" ry="5.23"/><ellipse class="cls-3" cx="63.09" cy="55.91" rx="3.58" ry="5.23"/><path class="cls-3" d="M63.09,66.81a55.65,55.65,0,0,1,12.3-1.88c5.17-.2,7.76-.3,9,1.22,3,3.6-1,16-8.33,16.83-5.4.64-11.87-4.48-12.65-12.46"/></g></g></svg>