<svg xmlns="http://www.w3.org/2000/svg" viewBox="0 0 432.43 768.52"><defs><style>.cls-1{fill:#e67e54;}.cls-2{fill:#fbf8f9;}.cls-3,.cls-7{fill:#1d1d1b;}.cls-4{fill:#fbc75d;}.cls-5{fill:#bed8a6;}.cls-6{fill:#003455;}.cls-7{stroke:#1d1d1b;stroke-miterlimit:10;}</style></defs><title>happyAvatarFront</title><g id="Lager_1" data-name="Lager 1"><path class="cls-1" d="M282,236.21c13.39-.46,26.68-1.62,40-2.91s26.68-2.55,40.06-3.24c4.29-.22,8.66-.47,13.06-.6a173.62,173.62,0,0,0,5.6-22.5s1.67-9.35,2.17-16.86c1.18-17.91-23.3-80-74.64-79.53-52.84.5-73.08,66.7-73.2,84.54a106.18,106.18,0,0,0,.82,12.69,96,96,0,0,0,9.42,30.42C254.15,237.82,266.76,236.73,282,236.21Z" transform="translate(-44.5 -46.09)"/></g><g id="Lager_4" data-name="Lager 4"><path class="cls-2" d="M285.34,225.17c8.53,1.14,17.07,1.81,25.65,2.41s17.17,1.22,25.72,2.21c2.74.31,5.53.62,8.34,1A110.48,110.48,0,0,0,351,217.14s2-5.75,3.17-10.45c2.65-11.22-6.26-53.15-38.83-58.3C281.8,143.08,262,182.86,260,194.15a67.15,67.15,0,0,0-.83,8.12,61.68,61.68,0,0,0,2.73,20.28C267.52,223.23,275.62,223.88,285.34,225.17Z" transform="translate(-44.5 -46.09)"/><path class="cls-1" d="M383.5,550.47a66.71,66.71,0,0,1-8.11,28.71c-12.46,22.81-38.92,39-66.31,38.21-40.93-1.19-69-39.88-73.76-72.56-.81-5.6-3.19-23.65,6.4-42.72,12.46-24.76,40-41,66.85-40.2C354.18,463.24,385.18,513.14,383.5,550.47Z" transform="translate(-44.5 -46.09)"/><path class="cls-2" d="M363.57,545c.61,4.82,2.15,18.75-6.19,31.92-10.78,17-31.68,22.7-47.29,21.56-28.64-2.09-51-28-53.47-53.48-.38-3.92-1.52-17.67,6.95-31,10.52-16.5,30.25-23.46,46.52-22.53C339.24,493.14,360.48,520.28,363.57,545Z" transform="translate(-44.5 -46.09)"/><ellipse class="cls-3" cx="276.28" cy="471.73" rx="3.58" ry="5.23"/><ellipse class="cls-3" cx="255.99" cy="471.73" rx="3.58" ry="5.23"/><path class="cls-3" d="M301.28,528.71c2.39-.73,18.77-5.64,21.32-.66a4.37,4.37,0,0,1,.25,2.39c-.29,4.7-2.89,13.43-8.58,14.44-5.08.9-11.93-4.48-13-13.52" transform="translate(-44.5 -46.09)"/><path class="cls-1" d="M192.05,746.27c-1.12,14.64-7.51,25.4-10.35,30.06-12,19.71-36.64,39.54-66.31,38.21-39.6-1.77-66.24-40.24-70.3-72.29a73.59,73.59,0,0,1,6.71-41.38c11.45-23.34,36.3-41.22,63.08-41.8C160.66,658.07,195,708,192.05,746.27Z" transform="translate(-44.5 -46.09)"/><path class="cls-2" d="M171.36,739.38c.79,5.92,1.7,20.77-7.67,34.64-10.68,15.81-30,23.41-47.28,21.56C88,792.52,70.84,764.39,68.28,742.25c-.59-5.1-1.93-18.35,5.94-31.23,9.5-15.55,27.47-22.42,42.19-22.4C144.46,688.67,167.94,713.8,171.36,739.38Z" transform="translate(-44.5 -46.09)"/><ellipse class="cls-3" cx="82.59" cy="668.88" rx="3.58" ry="5.23"/><ellipse class="cls-3" cx="63.09" cy="668.88" rx="3.58" ry="5.23"/><path class="cls-3" d="M107.59,725.86a55.75,55.75,0,0,1,12.3-1.88c5.18-.2,7.77-.3,9,1.22,3,3.61-1,16-8.32,16.83-5.41.64-11.87-4.48-12.65-12.46" transform="translate(-44.5 -46.09)"/><path class="cls-2" d="M126.91,672.7" transform="translate(-44.5 -46.09)"/></g><g id="Lager_12" data-name="Lager 12"><rect class="cls-4" x="364.16" y="75.75" width="6.63" height="19.9"/><rect class="cls-4" x="408.66" y="121.93" width="6.63" height="19.9" transform="translate(499.36 -326.18) rotate(90)"/><rect class="cls-5" x="209.01" y="150.34" width="6.63" height="19.9" transform="translate(328.12 -98.12) rotate(90)"/><rect class="cls-4" x="103.63" y="184.14" width="6.63" height="19.9"/><rect class="cls-4" x="148.13" y="230.32" width="6.63" height="19.9" transform="translate(347.22 42.74) rotate(90)"/><rect class="cls-4" x="157.87" y="28.92" width="6.63" height="19.9"/><rect class="cls-4" x="202.37" y="75.1" width="6.63" height="19.9" transform="translate(246.24 -166.72) rotate(90)"/><rect class="cls-4" x="419.16" y="200.92" width="6.63" height="19.9"/><rect class="cls-4" x="463.66" y="247.1" width="6.63" height="19.9" transform="translate(679.53 -256.01) rotate(90)"/><rect class="cls-5" x="329.78" y="81.73" width="6.63" height="19.9" transform="translate(380.28 -287.5) rotate(90)"/><rect class="cls-5" x="428.57" y="212.97" width="6.63" height="19.9" transform="translate(610.3 -255.04) rotate(90)"/><rect class="cls-5" x="158.08" y="191.02" width="6.63" height="19.9" transform="translate(317.88 -6.51) rotate(90)"/><rect class="cls-4" x="335.13" width="6.63" height="19.9"/><rect class="cls-4" x="379.63" y="46.18" width="6.63" height="19.9" transform="translate(394.58 -372.9) rotate(90)"/><rect class="cls-5" x="448.98" y="150.34" width="6.63" height="19.9" transform="translate(568.09 -338.09) rotate(90)"/><rect class="cls-5" x="255.8" y="49.4" width="6.63" height="19.9" transform="translate(273.97 -245.84) rotate(90)"/><rect class="cls-4" x="123.53" y="364.91" width="6.63" height="19.9"/><rect class="cls-4" x="168.04" y="411.09" width="6.63" height="19.9" transform="translate(547.89 203.6) rotate(90)"/><rect class="cls-4" x="158.63" y="541.96" width="6.63" height="19.9"/><rect class="cls-4" x="203.13" y="588.14" width="6.63" height="19.9" transform="translate(760.04 345.56) rotate(90)"/><rect class="cls-5" x="168.04" y="554.01" width="6.63" height="19.9" transform="translate(690.82 346.53) rotate(90)"/><rect class="cls-5" x="188.45" y="478.12" width="6.63" height="19.9" transform="translate(635.34 250.22) rotate(90)"/><rect class="cls-5" x="389.32" y="594.78" width="6.63" height="19.9" transform="translate(952.86 166.01) rotate(90)"/><rect class="cls-4" x="394.01" y="483.61" width="6.63" height="19.9"/><rect class="cls-4" x="438.52" y="529.8" width="6.63" height="19.9" transform="translate(937.08 51.83) rotate(90)"/><rect class="cls-4" x="329.99" y="395.61" width="6.63" height="19.9"/><rect class="cls-4" x="374.49" y="441.79" width="6.63" height="19.9" transform="translate(785.05 27.85) rotate(90)"/><rect class="cls-5" x="405.34" y="502.63" width="6.63" height="19.9" transform="translate(876.74 57.84) rotate(90)"/><rect class="cls-5" x="270.9" y="432.13" width="6.63" height="19.9" transform="translate(671.8 121.78) rotate(90)"/><rect class="cls-4" x="276.25" y="350.4" width="6.63" height="19.9"/><rect class="cls-4" x="320.75" y="396.58" width="6.63" height="19.9" transform="translate(686.1 36.38) rotate(90)"/><rect class="cls-5" x="428.57" y="399.9" width="6.63" height="19.9" transform="translate(797.23 -68.12) rotate(90)"/></g><g id="Lager_2" data-name="Lager 2"><rect class="cls-6" x="177.74" y="165.74" width="170.39" height="56.7"/></g><g id="Lager_7" data-name="Lager 7"><path class="cls-3" d="M315.85,173.79c0,2.66,2.54,4.29,4.67,5.3a18.06,18.06,0,0,0,7.89,1.67,2.54,2.54,0,0,0,1.92-.76c.37-.55-.32-.74-.75-.74a15.36,15.36,0,0,1-6.73-1.48c-1.94-.92-4.13-2.36-4.1-4.77,0-.75-2.88-.26-2.9.78Z" transform="translate(-44.5 -46.09)"/><path class="cls-3" d="M301.62,173.55a5.23,5.23,0,0,1-3.31,4.62,17,17,0,0,1-3.61.75,34.6,34.6,0,0,1-4.2.31c-.59,0-1.53.45-1.61,1.1s.8.84,1.3.83a36.69,36.69,0,0,0,4.8-.39,20.38,20.38,0,0,0,4.81-1.18,7.66,7.66,0,0,0,4.74-6.31c.11-1.39-2.83-.92-2.92.27Z" transform="translate(-44.5 -46.09)"/><ellipse class="cls-7" cx="275.72" cy="141.72" rx="2.92" ry="3.82"/><ellipse class="cls-7" cx="257.54" cy="141.72" rx="2.92" ry="3.82"/></g><g id="Lager_6" data-name="Lager 6"><ellipse class="cls-2" cx="232.52" cy="176.84" rx="10.02" ry="11.87"/><ellipse class="cls-2" cx="292.75" cy="170.84" rx="10.02" ry="11.87"/><rect class="cls-2" x="222.51" y="158.21" width="20.03" height="20.03"/><rect class="cls-2" x="282.73" y="151.12" width="20.03" height="20.03"/></g></svg>