<svg xmlns="http://www.w3.org/2000/svg" viewBox="0 0 335.43 222.44"><defs><style>.cls-1{fill:#e67e54;}.cls-2{fill:#fbf8f9;}.cls-3{fill:#fbc75d;}.cls-4{fill:#bed8a6;}.cls-5{fill:#003455;}.cls-6,.cls-7{fill:#1d1d1b;}.cls-7{stroke:#1d1d1b;stroke-miterlimit:10;}</style></defs><title>sadAvatar</title><g id="Lager_1" data-name="Lager 1"><path class="cls-1" d="M282,236.21c13.39-.46,26.68-1.62,40-2.91s26.68-2.55,40.06-3.24c4.29-.22,8.66-.47,13.06-.6a173.62,173.62,0,0,0,5.6-22.5s1.67-9.35,2.17-16.86c1.18-17.91-23.3-80-74.64-79.53-52.84.5-73.08,66.7-73.2,84.54a106.18,106.18,0,0,0,.82,12.69,96,96,0,0,0,9.42,30.42C254.15,237.82,266.76,236.73,282,236.21Z" transform="translate(-141.5 -46.09)"/></g><g id="Lager_4" data-name="Lager 4"><path class="cls-2" d="M285.34,225.17c8.53,1.14,17.07,1.81,25.65,2.41s17.17,1.22,25.72,2.21c2.74.31,5.53.62,8.34,1A110.48,110.48,0,0,0,351,217.14s2-5.75,3.17-10.45c2.65-11.22-6.26-53.15-38.83-58.3C281.8,143.08,262,182.86,260,194.15a67.15,67.15,0,0,0-.83,8.12,61.68,61.68,0,0,0,2.73,20.28C267.52,223.23,275.62,223.88,285.34,225.17Z" transform="translate(-141.5 -46.09)"/></g><g id="Lager_12" data-name="Lager 12"><rect class="cls-3" x="267.16" y="75.75" width="6.63" height="19.9"/><rect class="cls-3" x="408.66" y="121.93" width="6.63" height="19.9" transform="translate(402.36 -326.18) rotate(90)"/><rect class="cls-4" x="209.01" y="150.34" width="6.63" height="19.9" transform="translate(231.12 -98.12) rotate(90)"/><rect class="cls-3" x="6.63" y="184.14" width="6.63" height="19.9"/><rect class="cls-3" x="148.13" y="230.32" width="6.63" height="19.9" transform="translate(250.23 42.74) rotate(90)"/><rect class="cls-3" x="60.87" y="28.92" width="6.63" height="19.9"/><rect class="cls-3" x="202.37" y="75.1" width="6.63" height="19.9" transform="translate(149.24 -166.72) rotate(90)"/><rect class="cls-3" x="322.16" y="200.92" width="6.63" height="19.9"/><rect class="cls-3" x="463.66" y="247.1" width="6.63" height="19.9" transform="translate(582.54 -256.01) rotate(90)"/><rect class="cls-4" x="329.78" y="81.73" width="6.63" height="19.9" transform="translate(283.29 -287.5) rotate(90)"/><rect class="cls-4" x="428.57" y="212.97" width="6.63" height="19.9" transform="translate(513.31 -255.04) rotate(90)"/><rect class="cls-4" x="158.08" y="191.02" width="6.63" height="19.9" transform="translate(220.88 -6.51) rotate(90)"/><rect class="cls-3" x="238.13" width="6.63" height="19.9"/><rect class="cls-3" x="379.63" y="46.18" width="6.63" height="19.9" transform="translate(297.59 -372.9) rotate(90)"/><rect class="cls-4" x="448.98" y="150.34" width="6.63" height="19.9" transform="translate(471.1 -338.09) rotate(90)"/><rect class="cls-4" x="255.8" y="49.4" width="6.63" height="19.9" transform="translate(176.97 -245.84) rotate(90)"/></g><g id="Lager_2" data-name="Lager 2"><rect class="cls-5" x="80.75" y="165.74" width="170.39" height="56.7"/></g><g id="Lager_7" data-name="Lager 7"><path class="cls-6" d="M315.85,173.79c0,2.66,2.54,4.29,4.67,5.3a18.06,18.06,0,0,0,7.89,1.67,2.54,2.54,0,0,0,1.92-.76c.37-.55-.32-.74-.75-.74a15.36,15.36,0,0,1-6.73-1.48c-1.94-.92-4.13-2.36-4.1-4.77,0-.75-2.88-.26-2.9.78Z" transform="translate(-141.5 -46.09)"/><path class="cls-6" d="M301.62,173.55a5.23,5.23,0,0,1-3.31,4.62,17,17,0,0,1-3.61.75,34.6,34.6,0,0,1-4.2.31c-.59,0-1.53.45-1.61,1.1s.8.84,1.3.83a36.69,36.69,0,0,0,4.8-.39,20.38,20.38,0,0,0,4.81-1.18,7.66,7.66,0,0,0,4.74-6.31c.11-1.39-2.83-.92-2.92.27Z" transform="translate(-141.5 -46.09)"/><ellipse class="cls-7" cx="178.73" cy="141.72" rx="2.92" ry="3.82"/><ellipse class="cls-7" cx="160.54" cy="141.72" rx="2.92" ry="3.82"/></g><g id="Lager_6" data-name="Lager 6"><ellipse class="cls-2" cx="135.53" cy="176.84" rx="10.02" ry="11.87"/><ellipse class="cls-2" cx="195.75" cy="170.84" rx="10.02" ry="11.87"/><rect class="cls-2" x="125.52" y="158.21" width="20.03" height="20.03"/><rect class="cls-2" x="185.74" y="151.12" width="20.03" height="20.03"/></g></svg>